<svg viewBox="0 0 595 841" xmlns="http://www.w3.org/2000/svg"><g stroke="#000"><path d="m529.89 266.32v278.2c0 129.38-104.89 234.27-234.27 234.27s-234.26-104.89-234.26-234.27v-278.2z" fill="#fff" stroke-width="8.57"/><path d="m144.76 266.35v276.13c0 84.08 67.79 152.25 151.4 152.25s151.4-68.16 151.4-152.25v-276.13z" fill="#005baa" stroke-width="8.57"/><g fill="#fff" stroke-width="4.28"><path d="m202.7 613.47c-12.61-14.35-25.21-28.25-25.21-71.91v-160.82h50.42v160.81c0 43.67-12.61 57.57-25.21 71.92z"/><path d="m296.16 613.47c-12.6-14.35-25.21-28.25-25.21-71.91v-160.82h50.43v160.81c-.01 43.67-12.61 57.57-25.22 71.92z"/><path d="m389.29 613.47c-12.61-14.35-25.21-28.25-25.21-71.91v-160.82h50.42v160.81c0 43.67-12.6 57.57-25.21 71.92z"/></g></g><path d="m122.19 293.45v6.21l-29.53 8.83v.11l29.53 8.83v6.21l-38.79-12.81v-4.58z"/><path d="m122.19 330v24.8h-5.55v-18.92h-11.06v16.12h-5.23v-16.12h-11.35v18.91h-5.6v-24.79z"/><path d="m122.19 362.46v15.15a11.41 11.41 0 0 1 -2.56 7.9 11.17 11.17 0 0 1 -19-3.65l-17.22 9v-7l16.56-8v-7.52h-16.57v-5.89zm-17 5.89v8.88c0 4.41 2.89 6.59 6.16 6.59a5.24 5.24 0 0 0 4.41-2 6.52 6.52 0 0 0 1.21-4.31v-9.21z"/><path d="m92.83 398.37a17.85 17.85 0 0 0 -3.87 11c0 4.79 2.18 7.68 5.39 7.68 2.73 0 4.8-1.58 5.24-5.07.22-1.74.43-3.11.71-5.12.93-6.7 5.29-10.3 10.9-10.3 6.64 0 11.34 4.63 11.34 12.64a22.76 22.76 0 0 1 -4 12.59l-4.85-3.27a18.09 18.09 0 0 0 3-9.59c0-3.6-1.85-6.48-5.56-6.48-2.18 0-4.36 1.58-5 5.5-.16 1-.38 2.51-.6 4.36-.88 7.25-5.89 10.63-11.18 10.63-7.14 0-11.28-5.29-11.28-13.62a21.77 21.77 0 0 1 5.34-14.82z"/><path d="m122.19 431.33v24.79h-5.55v-18.9h-11.06v16.13h-5.23v-16.14h-11.35v18.9h-5.6v-24.78z"/><path d="m104.76 476.38v13.79h-7.9a13.93 13.93 0 0 1 -6.81-26c2.29-1.25 3.43-1.69 12.76-1.69s10.46.44 12.75 1.69a13.92 13.92 0 0 1 -4.56 25.78v-6.21a7.85 7.85 0 0 0 5.61-7.42 7.48 7.48 0 0 0 -2.83-6c-2-1.52-3.05-2-11-2s-9 .44-11 2a7.48 7.48 0 0 0 -2.84 6 7.87 7.87 0 0 0 8.23 8h2v-7.9z"/><path d="m100.35 520.39v-15.39h-16.95v-5.88h38.79v5.88h-16.61v15.37h16.61v5.88h-38.79v-5.88z"/><path d="m99.35 543.43 22.75-11.82v6.22l-17.1 8.34 17.28 8.11v6.21l-22.89-11.49-16 .11v-5.56z"/><path d="m125 578.06 6.2 24-5.38 1.39-4.72-18.31-11.04 2.86 4 15.62-5.06 1.31-4-15.62-16 4.14-1.47-5.7z"/><path d="m133 606.26 10.24 22.58-5.06 2.29-7.81-17.21-10.07 4.56 6.7 14.69-4.76 2.16-6.66-14.69-10.37 4.71 7.8 17.21-5.06 2.3-10.27-22.58z"/><path d="m146 633.52 8.66 12.42a11.41 11.41 0 0 1 2.42 7.95 11.17 11.17 0 0 1 -17.68 7.88l-9 17.22-4-5.72 9-16-4.3-6.17-13.59 9.47-3.37-4.83zm-10.58 14.55 5.08 7.28c2.52 3.62 6.14 3.75 8.82 1.88a5.25 5.25 0 0 0 2.5-4.13 6.55 6.55 0 0 0 -1.48-4.21l-5.27-7.55z"/><path d="m165.72 660.2 17.61 17.45-3.91 4-13.42-13.36-7.78 7.86 11.46 11.35-3.68 3.71-11.46-11.34-8 8.09 13.44 13.3-3.98 3.95-17.61-17.44z"/><path d="m187.43 681.09 4.62 3.08-.69 32.67.09.06 15.29-22.9 4.89 3.26-21.5 32.29-4.63-3.08.69-32.67-.09-.06-15.29 22.94-4.9-3.26z"/><path d="m232.22 736.53c-4.19 6.1-10.72 7.63-16.86 5.08a13.76 13.76 0 0 1 -8.54-11.11c-.28-2.59-.24-3.82 3.33-12.42s4.42-9.49 6.45-11.12a13.92 13.92 0 0 1 22.06 14.04l-5.74-2.38a7.84 7.84 0 0 0 -4.69-8 7.46 7.46 0 0 0 -6.62.31c-2.16 1.23-3 2.06-6 9.41s-3.06 8.52-2.41 10.91a7.48 7.48 0 0 0 4.45 4.92c3 1.25 6 .55 8.87-2z"/><path d="m271.11 734 13.67 1.75-1 7.83a13.92 13.92 0 0 1 -26.64 3.46c-.95-2.43-1.24-3.62-.06-12.86s1.76-10.32 3.29-12.43a13.92 13.92 0 0 1 25 7.75l-6.16-.79a7.84 7.84 0 0 0 -6.64-6.5 7.46 7.46 0 0 0 -6.3 2.05c-1.76 1.75-2.33 2.78-3.34 10.66s-.71 9 .55 11.17a7.46 7.46 0 0 0 5.59 3.57 7.86 7.86 0 0 0 8.93-7.15l.25-2-7.83-1z"/><path d="m294.38 718.14 5.88-.05.4 38.79-5.88.06z"/><path d="m308.79 718.42 5.48-.94 15.23 23 6.5-26.73 5.47-.94 6.53 38.19-5.8 1-4.1-23.84h-.11l-4.84 19.84-4.83.83-11.16-17h-.11l4.1 23.84-5.8 1z"/><path d="m348.62 710.5 5.13-2.13 26.79 18.7h.1l-10.64-25.5 5.43-2.26 14.92 35.81-5.13 2.13-26.79-18.7h-.1l10.67 25.45-5.43 2.26z"/><path d="m387.8 679.74 6-4.1-1.93 10.93-3.79 2.57zm23.53 26-14.16-10.87-.09.06 4.92 17.22zm4.33 3.38-12.17 8.26 2.39 8.85-5.14 3.49-10.11-40 4.06-2.76 33.46 24.18-5.15 3.51z"/><path d="m431.2 701.9-7.39-32.81-12.1 11.78-3.65-3.75 17.25-16.8 3.08 3.16 7.46 33 12.65-12.32 3.88 4-17.76 17.29z"/><path d="m429.21 655.14 3.67-4.6 30.31 24.2-3.67 4.6z"/><path d="m438 644.42 3-5.07 21.56 12.65c4.6 2.71 8.83 1.21 11.1-2.64s1.51-8.27-3.09-11l-21.57-12.63 3-5.07 22.12 13c7 4.09 8.51 12.08 4.61 18.7s-11.64 9.15-18.59 5.06z"/><path d="m455.17 614.39 1.72-5.28 27.48-2.73-20.65-18.19 1.72-5.28 36.88 12-1.83 5.59-23-7.5v.1l15.19 13.5-1.52 4.66-20.23 1.94v.11l23 7.5-1.82 5.6z"/><path d="m484.59 558.9a4.83 4.83 0 1 1 4.46 5.17 4.83 4.83 0 0 1 -4.46-5.17z"/><path d="m498.18 531.24a17.86 17.86 0 0 0 3.87-11c0-4.8-2.18-7.68-5.4-7.68-2.72 0-4.79 1.58-5.23 5.06-.22 1.74-.44 3.11-.71 5.12-.93 6.7-5.29 10.29-10.9 10.29-6.64 0-11.33-4.63-11.33-12.64a22.75 22.75 0 0 1 4-12.59l4.85 3.27a18.14 18.14 0 0 0 -3 9.59c0 3.59 1.85 6.48 5.56 6.48 2.18 0 4.36-1.58 5-5.5.16-1 .38-2.51.6-4.36.88-7.24 5.89-10.62 11.17-10.62 7.14 0 11.28 5.29 11.28 13.62a21.74 21.74 0 0 1 -5.34 14.82z"/><path d="m502.7 500.61-28.7-17.61v16.89h-5.23v-24.06h4.42l28.81 17.65v-17.65h5.56v24.79z"/><path d="m475.45 467.43a14.07 14.07 0 0 1 0-24.3c2.29-1.25 3.44-1.69 12.75-1.69s10.46.44 12.75 1.69a14.07 14.07 0 0 1 0 24.3c-2.29 1.25-3.43 1.69-12.75 1.69s-10.45-.44-12.75-1.69zm23.76-6.16a7.76 7.76 0 0 0 0-12c-2-1.53-3-2-11-2s-9 .43-11 2a7.75 7.75 0 0 0 0 12c2 1.53 3 2 11 2s9.04-.47 11-2z"/><path d="m468.81 432.4v-5.88h33.19v-18.9h5.56v24.78z"/><path d="m468.81 399.87v-5.55l27.57-17.55v-.11h-27.57v-5.88h38.79v5.56l-27.6 17.53v.13h27.6v5.88z"/><path d="m475.45 360a14.07 14.07 0 0 1 0-24.3c2.29-1.25 3.44-1.69 12.75-1.69s10.46.43 12.75 1.69a14.07 14.07 0 0 1 0 24.3c-2.29 1.26-3.43 1.69-12.75 1.69s-10.45-.38-12.75-1.69zm23.76-6.16a7.75 7.75 0 0 0 0-12c-2-1.53-3-2-11-2s-9 .43-11 2a7.75 7.75 0 0 0 0 12c2 1.53 3 2 11 2s9.04-.42 11-1.95z"/><path d="m468.81 325v-5.88h20v-.11l-20-16v-7l15.31 12.42 23.48-13.73v7l-19 10.57 7.14 6.81h11.86v5.92z"/><g stroke="#000"><path d="m293.6 44.47a6.54 6.54 0 0 0 -2.76 3.21l-6.87 4-4-6.87a6.52 6.52 0 0 0 -.81-4.15 6.6 6.6 0 1 0 -11.41 6.63 6.52 6.52 0 0 0 3.25 2.71l4 6.87-6.86 4a6.57 6.57 0 0 0 -6.54 9.83 6.6 6.6 0 0 0 9 2.39 6.52 6.52 0 0 0 2.76-3.21l6.87-4 6.56 11.28a11.7 11.7 0 1 0 9-5.24l-6.56-11.28 6.86-4a6.52 6.52 0 0 0 4.15-.81 6.6 6.6 0 1 0 -6.63-11.41z" fill="#dbb55f" stroke-width="4.28"/><path d="m415.47 152.71-68.11-51.42h-101.64l-68.12 51.42v113.08h237.88z" fill="#dbb55f" stroke-width="8.57"/><g stroke-width="5.4"><g fill="none"><path d="m177.6 212.19h237.9"/><path d="m177.89 248.98h237.69"/><path d="m268.2 212.19v36.19"/><path d="m324.9 212.19v36.19"/><path d="m403.34 170.39c-3-6.15-27.44-48.82-76.88-56.54"/><path d="m189.35 170.39c3-6.15 27.43-48.82 76.87-56.54"/><path d="m279.11 96.61v61.55"/><path d="m314 96.61v61.55"/></g><g fill="#dbb55f"><path d="m338.2 221.98h19.39v17.16h-19.39z"/><rect height="17.13" rx="5.23" width="13.54" x="369.75" y="222.24"/><path d="m393.5 222.24h11.92v16.93h-11.92z"/><path d="m235.52 221.75h19.38v17.16h-19.38z"/><path d="m215.05 222h3.07a5.24 5.24 0 0 1 5.24 5.24v6.67a5.23 5.23 0 0 1 -5.23 5.23h-3.13a5.23 5.23 0 0 1 -5.23-5.23v-6.67a5.24 5.24 0 0 1 5.28-5.24z"/><path d="m187.69 222.01h11.92v16.93h-11.92z"/></g></g><path d="m268.2 98.52v-1.91h56.7v1.91" fill="none" stroke-width="8.57"/><g fill="#dbb55f" stroke-width="5.4"><path d="m268.2 201.3v-104.69h56.7v104.69"/><path d="m296.55 238.46c9.24 0 16.73-2.34 16.73-7.47s-7.49-7.48-16.73-7.48-16.72 2.34-16.72 7.48 7.48 7.47 16.72 7.47z"/><path d="m407.75 201.3h-21.51l10.49-25.86z"/><circle cx="371.31" cy="160.17" r="7.58"/><circle cx="397.02" cy="167.15" r="6.14"/><path d="m325.36 201.3 16.23-39.05 15.91 39.05z"/><path d="m358.75 184.43a12.57 12.57 0 0 1 25.13 0h.05v16.87h-25.24v-16.87z"/><circle cx="341.42" cy="152.84" r="8.34"/><path d="m184.94 201.3h21.52l-10.5-25.86z"/><circle cx="221.38" cy="160.17" r="7.58"/><circle cx="195.67" cy="167.15" r="6.14"/><path d="m267.33 201.3-16.23-39.05-15.91 39.05z"/><path d="m233.94 184.43a12.57 12.57 0 0 0 -25.13 0h-.05v16.87h25.24v-16.87z"/><circle cx="251.27" cy="152.84" r="8.33"/><path d="m296.55 153a28.78 28.78 0 0 0 -28.15 22.8v25.5h56.3v-25.47a28.77 28.77 0 0 0 -28.15-22.83z"/><circle cx="296.55" cy="143.55" r="9.27"/></g><path d="m144.8 266.35h302.71v114.32h-302.71z" fill="#fff" stroke-width="8.57"/><g fill="#e31f26" stroke-width="4.28"><path d="m241.72 303.16h-13.9v12.97h-18.58v-18.57h13.02v-13.04h-39.3v12.95h12.99v18.57h-18.58v-12.88h-13.04v40.12h13.13v-13.06h18.58v18.58h-13.08v13.12h39.3v-13.12h-13.02v-18.58h18.58v13.06h13.9z"/><path d="m334.85 303.16h-13.9v12.97h-18.57v-18.57h13.01v-13.04h-39.29v12.95h12.99v18.57h-18.57v-12.88h-13.06v40.12h13.14v-13.06h18.57v18.58h-13.07v13.12h39.29v-13.12h-13.01v-18.58h18.57v13.06h13.9z"/><path d="m427.99 303.16h-13.89v12.97h-18.59v-18.57h13.02v-13.04h-39.29v12.95h12.99v18.57h-18.58v-12.88h-13.05v40.12h13.14v-13.06h18.57v18.58h-13.07v13.12h39.29v-13.12h-13.02v-18.58h18.59v13.06h13.89z"/></g></g></svg>